#!OML:ASF F:\VICON\USERDATA\INSTALL\rory3\rory3.ASF
:FULLY-SPECIFIED
:DEGREES
2066
root -3.58501 17.721 -3.48847 -173.065 119.537 -177.023
lowerback 3.34615 0.529107 -1.32272
upperback 2.76803 0.698428 1.80201
thorax 0.926819 0.327738 2.57443
lowerneck -13.5353 9.94817 -3.66708
upperneck 39.2846 18.1366 -0.448997
head 16.0077 7.38829 3.58747
rclavicle -1.98785e-015 -7.95139e-015
rhumerus -36.5441 -6.34082 -76.4147
rradius 42.662
rwrist 20.5422
rhand -21.4372 -4.76371
rfingers 7.12502
rthumb 4.95222 -34.6858
lclavicle -1.98785e-015 -7.95139e-015
lhumerus 7.48636 26.1539 51.1264
lradius 16.1288
lwrist -20.2715
lhand -19.3361 33.2829
lfingers 7.12502
lthumb 6.98068 1143.15
rfemur -9.92704 2.56333 7.51935
rtibia 34.1975
rfoot -17.8028 -5.61928
rtoes -3.99348
lfemur -13.5787 -3.77537 -13.0817
ltibia 24.1078
lfoot -11.6772 -2.57714
ltoes -20.6139
2067
root -3.64372 17.7132 -3.42475 -172.982 119.316 -177.072
lowerback 3.28449 0.485484 -1.29666
upperback 2.77909 0.64147 1.8957
thorax 0.975106 0.298518 2.65842
lowerneck -13.4781 9.95257 -4.00637
upperneck 39.3211 18.1903 -0.303303
head 15.9508 7.39026 3.69794
rclavicle -2.36554e-014 7.95139e-015
rhumerus -36.2708 -5.74058 -76.5508
rradius 42.5813
rwrist 20.3704
rhand -21.4545 -4.58766
rfingers 7.12502
rthumb 4.93554 -34.5102
lclavicle -2.36554e-014 7.95139e-015
lhumerus 7.2944 26.1968 51.2438
lradius 16.2461
lwrist -20.018
lhand -19.3138 33.307
lfingers 7.12502
lthumb 7.00224 1143.17
rfemur -9.79357 1.85581 7.95819
rtibia 33.7746
rfoot -18.3805 -5.62654
rtoes -5.04839
lfemur -13.8356 -4.04054 -12.7118
ltibia 24.0996
lfoot -11.5943 -2.4809
ltoes -20.9493
2068
root -3.70336 17.7071 -3.36039 -173.235 119.158 -177.367
lowerback 3.35185 0.448124 -1.14025
upperback 2.81438 0.595878 1.94076
thorax 0.977179 0.277948 2.61761
lowerneck -13.369 9.99293 -4.01864
upperneck 39.3341 18.245 -0.28307
head 15.9261 7.41966 3.70704
rclavicle -4.17448e-015 -1.19271e-014
rhumerus -36.0748 -5.41682 -76.7811
rradius 42.5941
rwrist 20.4057
rhand -21.1287 -4.20234
rfingers 7.12502
rthumb 5.25012 -34.1173
lclavicle -4.17448e-015 -1.19271e-014
lhumerus 7.11901 26.2024 51.2285
lradius 16.3392
lwrist -19.8926
lhand -19.29 33.2294
lfingers 7.12502
lthumb 7.02525 1143.09
rfemur -9.58866 1.11758 8.5398
rtibia 33.3678
rfoot -18.8376 -5.73687
rtoes -6.84144
lfemur -13.946 -4.25324 -12.219
ltibia 24.1002
lfoot -11.5344 -2.3445
ltoes -21.6555
2069
root -3.76537 17.7011 -3.29984 -173.344 119.029 -177.61
lowerback 3.36512 0.419325 -1.01482
upperback 2.83034 0.560954 2.00608
thorax 0.9885 0.262013 2.61519
lowerneck -13.4656 9.95866 -4.0985
upperneck 39.4938 18.256 -0.265942
head 16.0207 7.40124 3.748
rclavicle -3.81667e-014 -1.59028e-014
rhumerus -35.9071 -5.22018 -76.9084
rradius 42.6834
rwrist 20.5295
rhand -20.8382 -3.96039
rfingers 7.12502
rthumb 5.53055 -33.8682
lclavicle -3.81667e-014 -1.59028e-014
lhumerus 7.03423 26.5787 51.4202
lradius 16.3826
lwrist -20.0329
lhand -19.3616 33.2567
lfingers 7.12502
lthumb 6.95609 1143.12
rfemur -9.54086 0.430381 9.09933
rtibia 32.9779
rfoot -19.3199 -5.93468
rtoes -6.87994
lfemur -14.1691 -4.39872 -11.7543
ltibia 24.0827
lfoot -11.418 -2.15848
ltoes -22.2236
2070
root -3.82762 17.6944 -3.24061 -173.192 118.91 -177.656
lowerback 3.28327 0.432371 -0.965345
upperback 2.80244 0.579307 2.03625
thorax 1.00472 0.271624 2.61843
lowerneck -13.4764 9.86661 -4.29529
upperneck 39.6163 18.1666 -0.16907
head 16.0522 7.3452 3.81072
rclavicle 3.97569e-015 2.78299e-014
rhumerus -35.7838 -4.94528 -76.997
rradius 42.7753
rwrist 20.4192
rhand -20.7553 -4.06028
rfingers 7.12502
rthumb 5.61058 -33.966
lclavicle 3.97569e-015 2.78299e-014
lhumerus 7.15254 27.4616 51.9482
lradius 16.3411
lwrist -20.7652
lhand -19.4419 33.1912
lfingers 7.12502
lthumb 6.87857 1143.06
rfemur -9.6078 -0.350569 9.54222
rtibia 32.6131
rfoot -19.7945 -6.10716
rtoes -6.38262
lfemur -14.4621 -4.62615 -11.3926
ltibia 24.0175
lfoot -11.2668 -1.85013
ltoes -22.5143
2071
root -3.88992 17.6863 -3.18371 -172.991 118.773 -177.628
lowerback 3.2131 0.466945 -0.883822
upperback 2.79105 0.62694 2.00729
thorax 1.03069 0.296634 2.54206
lowerneck -13.4627 9.76855 -4.29428
upperneck 39.7201 18.0386 -0.152884
head 16.1045 7.28944 3.80494
rclavicle -1.0138e-014 1.03368e-014
rhumerus -35.6735 -4.78484 -77.0824
rradius 42.9035
rwrist 20.3646
rhand -20.4958 -4.06702
rfingers 7.12502
rthumb 5.86118 -33.966
lclavicle -1.0138e-014 1.03368e-014
lhumerus 7.15996 27.3839 52.1207
lradius 16.411
lwrist -20.6507
lhand -19.2456 33.1696
lfingers 7.12502
lthumb 7.0681 1143.03
rfemur -9.67036 -1.16751 9.92643
rtibia 32.2682
rfoot -20.3396 -6.10324
rtoes -4.9855
lfemur -14.7321 -4.92098 -11.0862
ltibia 23.9216
lfoot -11.114 -1.47365
ltoes -22.8436
2072
root -3.9524 17.6799 -3.12656 -172.814 118.724 -177.573
lowerback 3.20743 0.490537 -0.846821
upperback 2.78977 0.659185 1.99843
thorax 1.03135 0.313408 2.51138
lowerneck -13.4144 9.77479 -4.29138
upperneck 39.8123 18.0077 -0.0182162
head 16.1199 7.29393 3.85529
rclavicle -1.64991e-014 2.38542e-014
rhumerus -35.5221 -4.58461 -77.1614
rradius 42.9997
rwrist 20.387
rhand -20.3518 -3.86237
rfingers 7.12502
rthumb 6.00015 -33.7574
lclavicle -1.64991e-014 2.38542e-014
lhumerus 6.77142 26.5805 51.9314
lradius 16.6605
lwrist -19.6936
lhand -19.2763 33.2626
lfingers 7.12502
lthumb 7.03841 1143.13
rfemur -9.7302 -1.7767 10.2939
rtibia 31.9525
rfoot -20.9403 -6.02133
rtoes -2.96783
lfemur -14.9018 -5.17156 -10.8193
ltibia 23.776
lfoot -10.9657 -1.02982
ltoes -23.5377
2073
root -4.01511 17.6774 -3.06659 -172.865 118.762 -177.776
lowerback 3.22223 0.532777 -0.672784
upperback 2.7683 0.719429 1.99111
thorax 0.999913 0.346659 2.40416
lowerneck -13.2379 9.82961 -4.44816
upperneck 39.7185 17.9202 0.384184
head 15.9451 7.31091 3.99585
rclavicle -5.725e-014 -2.62396e-014
rhumerus -35.3923 -4.29662 -77.3414
rradius 43.022
rwrist 20.3162
rhand -20.6418 -4.04223
rfingers 7.12502
rthumb 5.72021 -33.945
lclavicle -5.725e-014 -2.62396e-014
lhumerus 6.49797 26.3461 51.9483
lradius 16.773
lwrist -19.3643
lhand -19.3822 33.2318
lfingers 7.12502
lthumb 6.93622 1143.1
rfemur -9.83182 -2.39506 10.7966
rtibia 31.6404
rfoot -21.3501 -5.95439
rtoes -1.66017
lfemur -15.0076 -5.42932 -10.3905
ltibia 23.6052
lfoot -10.7548 -0.572991
ltoes -23.6188
2074
root -4.08059 17.6765 -3.00387 -172.852 118.885 -177.871
lowerback 3.25233 0.605136 -0.636381
upperback 2.809 0.816924 2.00332
thorax 1.02067 0.395771 2.39393
lowerneck -13.3169 9.67303 -4.41442
upperneck 39.9444 17.8664 0.0963939
head 16.1381 7.23255 3.89806
rclavicle 3.57812e-015 -3.10104e-014
rhumerus -35.1818 -3.98215 -77.4613
rradius 43.0946
rwrist 20.2596
rhand -20.6759 -4.17038
rfingers 7.12502
rthumb 5.68728 -34.0741
lclavicle 3.57812e-015 -3.10104e-014
lhumerus 6.28591 25.9707 52.0711
lradius 16.933
lwrist -18.9079
lhand -18.9316 32.8351
lfingers 7.12502
lthumb 7.37119 1142.69
rfemur -9.95688 -2.90634 11.2312
rtibia 31.35
rfoot -21.6658 -5.92237
rtoes -1.26311
lfemur -15.0356 -5.729 -9.99212
ltibia 23.4158
lfoot -10.5755 -0.0853197
ltoes -23.4409
2075
root -4.14959 17.6761 -2.94353 -172.927 119.019 -178.072
lowerback 3.32338 0.652141 -0.59805
upperback 2.83996 0.881163 2.06677
thorax 1.00946 0.428326 2.43556
lowerneck -13.3313 9.56756 -4.41868
upperneck 39.9653 17.814 -0.131472
head 16.1931 7.17386 3.80503
rclavicle 9.95911e-014 -5.1684e-014
rhumerus -34.9304 -3.60104 -77.5057
rradius 43.1762
rwrist 20.2512
rhand -20.684 -3.81969
rfingers 7.12502
rthumb 5.67941 -33.7236
lclavicle 9.95911e-014 -5.1684e-014
lhumerus 5.91972 25.2823 52.0704
lradius 17.1328
lwrist -18.0409
lhand -18.1144 31.9307
lfingers 7.12502
lthumb 8.15992 1141.75
rfemur -10.1182 -3.18658 11.7096
rtibia 31.0976
rfoot -21.9179 -5.91853
rtoes -1.41258
lfemur -15.0891 -5.90413 -9.54489
ltibia 23.2385
lfoot -10.3596 0.246508
ltoes -23.9418
2076
root -4.21845 17.6765 -2.88385 -173.341 119.09 -178.71
lowerback 3.39728 0.671388 -0.274917
upperback 2.81875 0.915703 2.13664
thorax 0.948332 0.450935 2.32372
lowerneck -13.2943 9.59175 -4.37275
upperneck 40.0348 17.8099 -0.0442815
head 16.2112 7.18769 3.83383
rclavicle 2.10712e-014 -7.95139e-016
rhumerus -34.7788 -3.39788 -77.5925
rradius 43.298
rwrist 20.2495
rhand -20.7966 -3.82498
rfingers 7.12502
rthumb 5.57071 -33.7318
lclavicle 2.10712e-014 -7.95139e-016
lhumerus 5.75672 25.6166 52.2725
lradius 17.0645
lwrist -18.2384
lhand -17.6997 30.8273
lfingers 7.12502
lthumb 8.56015 1140.63
rfemur -10.3324 -3.32996 12.4117
rtibia 30.9219
rfoot -22.0764 -5.82345
rtoes -0.54401
lfemur -15.2212 -5.9975 -8.88086
ltibia 23.0367
lfoot -10.0423 0.641417
ltoes -25.1493
2077
root -4.28815 17.6754 -2.82619 -173.691 119.16 -179.286
lowerback 3.48435 0.70969 0.126388
upperback 2.80319 0.978208 2.13229
thorax 0.887407 0.488904 2.09069
lowerneck -13.2551 9.67268 -4.54768
upperneck 40.0263 17.7176 0.527603
head 16.0831 7.21098 4.06226
rclavicle -2.78299e-015 -2.54444e-014
rhumerus -34.6495 -3.47601 -77.6814
rradius 43.4176
rwrist 20.3347
rhand -20.6824 -3.88792
rfingers 7.12502
rthumb 5.68099 -33.7918
lclavicle -2.78299e-015 -2.54444e-014
lhumerus 5.86105 26.527 52.6669
lradius 16.8041
lwrist -19.1939
lhand -17.721 30.1095
lfingers 7.12502
lthumb 8.53963 1139.92
rfemur -10.583 -3.34812 13.044
rtibia 30.8051
rfoot -22.1555 -5.75902
rtoes -0.286664
lfemur -15.3905 -6.20802 -8.26145
ltibia 22.8413
lfoot -9.68638 1.32302
ltoes -26.0196
